<svg width="24" height="24" viewBox="0 0 24 24" fill="none" xmlns="http://www.w3.org/2000/svg">
<path d="M14.4697 5.46973C14.7626 5.17684 15.2374 5.17684 15.5303 5.46973C15.8232 5.76262 15.8232 6.23738 15.5303 6.53028L10.2373 11.8232C10.1673 11.8932 10.1108 11.9501 10.0625 12C10.1108 12.0499 10.1673 12.1068 10.2373 12.1768L15.5303 17.4697C15.8232 17.7626 15.8232 18.2374 15.5303 18.5303C15.2374 18.8232 14.7626 18.8232 14.4697 18.5303L9.17676 13.2373C9.0251 13.0857 8.85734 12.9193 8.73633 12.7607C8.61886 12.6068 8.49334 12.3951 8.46387 12.1211L8.45703 12L8.46387 11.8789C8.49334 11.6049 8.61886 11.3932 8.73633 11.2393C8.85734 11.0807 9.0251 10.9144 9.17676 10.7627L14.4697 5.46973Z" fill="#707073"/>
</svg>
