<svg width="24" height="24" viewBox="0 0 24 24" fill="none" xmlns="http://www.w3.org/2000/svg">
<path d="M19.75 13.2608C19.1452 13.6651 18.4536 13.9609 17.711 14.1182C17.0684 14.2543 16.3299 14.25 15.083 14.25H14.7373C14.611 15.6516 13.4345 16.75 12 16.75C10.5656 16.75 9.38908 15.6516 9.26271 14.25H8.91701C7.67011 14.25 6.93162 14.2543 6.28908 14.1182C5.54643 13.9609 4.85488 13.6651 4.25002 13.2608V13.5C4.25002 15.4057 4.25192 16.7639 4.38283 17.7949C4.51153 18.8082 4.75307 19.3916 5.15139 19.8135C5.54409 20.2293 6.07839 20.4779 7.01564 20.6113C7.97928 20.7485 9.25241 20.75 11.0557 20.75H12.9444C14.7476 20.75 16.0208 20.7485 16.9844 20.6113C17.9216 20.4779 18.4559 20.2293 18.8486 19.8135C19.247 19.3916 19.4885 18.8082 19.6172 17.7949C19.7481 16.7639 19.75 15.4057 19.75 13.5V13.2608ZM11.0029 12.7539C10.9634 12.7557 10.9433 12.7577 10.9356 12.7588C10.8493 12.7819 10.7819 12.8493 10.7588 12.9356C10.7577 12.9433 10.7557 12.9634 10.7539 13.0029C10.7506 13.0752 10.75 13.1715 10.75 13.333V14C10.75 14.6904 11.3097 15.25 12 15.25C12.6904 15.25 13.25 14.6904 13.25 14V13.333C13.25 13.1715 13.2494 13.0752 13.2461 13.0029C13.2443 12.9634 13.2423 12.9433 13.2412 12.9356C13.2181 12.8493 13.1507 12.7819 13.0645 12.7588C13.0567 12.7577 13.0367 12.7557 12.9971 12.7539C12.9248 12.7506 12.8286 12.75 12.667 12.75H11.333C11.1715 12.75 11.0752 12.7506 11.0029 12.7539ZM4.4756 7.25001C3.94685 7.25001 3.82215 7.25598 3.74416 7.2754C3.44315 7.35064 3.28078 7.55933 3.25099 7.7422C3.25092 7.74259 3.24697 7.77112 3.25588 7.87305C3.26521 7.97969 3.28356 8.11967 3.31447 8.34278C3.47979 9.53608 3.55007 9.99484 3.70021 10.3604C3.78622 10.5697 3.89305 10.7708 4.01955 10.9609C4.08174 11.0209 4.13232 11.0916 4.17092 11.1699C4.73173 11.8945 5.58485 12.4354 6.59963 12.6504C7.0503 12.7459 7.5961 12.75 8.91701 12.75H9.2715C9.2803 12.6808 9.29199 12.6126 9.30959 12.5469C9.47143 11.9431 9.94312 11.4714 10.5469 11.3096C10.7934 11.2435 11.0714 11.25 11.333 11.25H12.667C12.9286 11.25 13.2067 11.2435 13.4531 11.3096C14.0569 11.4714 14.5286 11.9431 14.6904 12.5469C14.708 12.6126 14.7197 12.6808 14.7285 12.75H15.083C16.4039 12.75 16.9497 12.7459 17.4004 12.6504C18.415 12.4354 19.2673 11.8943 19.8281 11.1699C19.8667 11.0917 19.9174 11.0209 19.9795 10.9609C20.1061 10.7707 20.2137 10.5699 20.2998 10.3604C20.45 9.99485 20.5203 9.53605 20.6856 8.34278C20.7165 8.11967 20.7348 7.97969 20.7442 7.87305C20.7531 7.771 20.7491 7.74253 20.749 7.7422C20.7193 7.55933 20.5569 7.35064 20.2559 7.2754C20.1779 7.25598 20.0532 7.25001 19.5244 7.25001H4.4756ZM11.8975 3.25001C11.2632 3.25001 10.8826 3.2526 10.5996 3.30177C10.3633 3.34289 10.2609 3.40593 10.168 3.50782C10.0505 3.63684 9.92746 3.85719 9.78517 4.32325C9.67439 4.6862 9.56868 5.14486 9.43459 5.75001H14.5654C14.4314 5.14486 14.3256 4.6862 14.2149 4.32325C14.0726 3.85719 13.9495 3.63684 13.832 3.50782C13.7392 3.40593 13.6368 3.34289 13.4004 3.30177C13.1175 3.2526 12.7369 3.25001 12.1026 3.25001H11.8975ZM21.25 13.5C21.25 15.3655 21.2512 16.8359 21.1055 17.9834C20.9576 19.1483 20.6465 20.0941 19.9385 20.8438C19.2248 21.5992 18.3152 21.9363 17.1953 22.0957C16.1015 22.2514 14.7028 22.25 12.9444 22.25H11.0557C9.29725 22.25 7.89854 22.2514 6.80471 22.0957C5.68485 21.9363 4.77523 21.5992 4.06154 20.8438C3.35352 20.0941 3.04247 19.1483 2.89455 17.9834C2.74886 16.8359 2.75002 15.3655 2.75002 13.5V11.7578C2.57987 11.4975 2.43209 11.2217 2.31252 10.9307C2.07235 10.346 1.98237 9.65502 1.82912 8.54884C1.77727 8.1746 1.71895 7.8177 1.77053 7.50098C1.90824 6.65566 2.57093 6.0226 3.3799 5.82032C3.68309 5.74453 4.04096 5.75001 4.4756 5.75001H7.89748C8.06363 4.99169 8.20133 4.37373 8.3506 3.88477C8.5154 3.34502 8.7178 2.87237 9.05861 2.49806C9.42378 2.0971 9.85542 1.9089 10.3418 1.82423C10.7821 1.74763 11.3148 1.75001 11.8975 1.75001H12.1026C12.6853 1.75001 13.218 1.74763 13.6582 1.82423C14.1446 1.9089 14.5763 2.0971 14.9414 2.49806C15.2822 2.87237 15.4846 3.34502 15.6494 3.88477C15.7987 4.37373 15.9364 4.99169 16.1026 5.75001H19.5244C19.9591 5.75001 20.3169 5.74453 20.6201 5.82032C21.4291 6.0226 22.0918 6.65566 22.2295 7.50098C22.2811 7.8177 22.2228 8.17461 22.1709 8.54884C22.0177 9.65501 21.9277 10.346 21.6875 10.9307C21.5679 11.2217 21.4202 11.4975 21.25 11.7578V13.5Z" fill="#464649"/>
</svg>
