<svg width="24" height="24" viewBox="0 0 24 24" fill="none" xmlns="http://www.w3.org/2000/svg">
<path d="M21.2499 6.49997C21.2499 4.98485 20.0145 3.75009 18.4824 3.74997C17.2096 3.74997 16.1418 4.60347 15.8173 5.76071C16.1366 5.94405 16.4058 6.20267 16.581 6.57614C16.8749 7.2028 16.7517 7.82009 16.4775 8.39157C16.9822 8.91946 17.6919 9.24997 18.4824 9.24997C20.0145 9.24984 21.2499 8.01509 21.2499 6.49997ZM6.9013 6.74997C5.41524 6.74997 4.38397 6.75203 3.66692 6.85446C2.93411 6.9592 2.81551 7.13158 2.77727 7.21286C2.74157 7.28895 2.6807 7.48136 3.07317 8.09762C3.45736 8.70087 4.12196 9.47513 5.08489 10.5918L8.77337 14.8681C8.86463 14.974 8.93645 15.0578 8.99993 15.1279C9.06341 15.0578 9.13523 14.974 9.22649 14.8681L12.915 10.5918C13.8779 9.47513 14.5425 8.70087 14.9267 8.09762C15.3192 7.48136 15.2583 7.28895 15.2226 7.21286C15.1843 7.13158 15.0657 6.9592 14.3329 6.85446C13.6159 6.75203 12.5846 6.74997 11.0986 6.74997H6.9013ZM22.7499 6.49997C22.7499 8.85068 20.8357 10.7498 18.4824 10.75C17.3913 10.75 16.3951 10.3409 15.6406 9.66989C15.2123 10.2215 14.6715 10.8514 14.0507 11.5713L10.3622 15.8476C10.1926 16.0443 10.0145 16.2541 9.8427 16.4043C9.81454 16.4289 9.78209 16.4509 9.74993 16.4756V21.25H10.4999C10.9141 21.25 11.2499 21.5858 11.2499 22C11.2499 22.4142 10.9141 22.75 10.4999 22.75H7.49993C7.08571 22.75 6.74993 22.4142 6.74993 22C6.74993 21.5858 7.08571 21.25 7.49993 21.25H8.24993V16.4756C8.21776 16.4509 8.18532 16.4289 8.15716 16.4043C7.98535 16.2541 7.80721 16.0443 7.63762 15.8476L3.94915 11.5713C3.01969 10.4934 2.2646 9.62095 1.80755 8.90329C1.35891 8.19877 1.03496 7.39462 1.41887 6.57614C1.80055 5.76261 2.62338 5.48793 3.45501 5.36911C4.30386 5.24785 5.46543 5.24997 6.9013 5.24997H7.61419L7.3593 3.71676C7.34397 3.62558 7.27907 3.5507 7.19133 3.52145L4.76262 2.71188C4.36967 2.5809 4.15703 2.15562 4.28801 1.76266C4.419 1.3697 4.84428 1.15707 5.23723 1.28805L7.66594 2.09762C8.2809 2.30261 8.73223 2.83127 8.8388 3.47067L9.13567 5.24997H11.0986C12.44 5.24997 13.5418 5.24897 14.373 5.34762C14.878 3.55807 16.5284 2.24997 18.4824 2.24997C20.8357 2.25009 22.7499 4.14925 22.7499 6.49997Z" fill="#464649"/>
</svg>
