<svg width="24" height="24" viewBox="0 0 24 24" fill="none" xmlns="http://www.w3.org/2000/svg">
<path d="M21.4219 7.52241C21.6637 7.22903 22.093 7.16052 22.4161 7.37592C22.7607 7.60569 22.8539 8.07131 22.6241 8.41596L22.0001 7.99994C22.6241 8.41597 22.6243 8.41668 22.6241 8.41694H22.6231L22.6221 8.41889C22.6213 8.42014 22.6205 8.42188 22.6192 8.42377C22.6165 8.42781 22.6122 8.43353 22.6075 8.44037C22.5982 8.45397 22.5852 8.47301 22.5684 8.49702C22.5343 8.54582 22.4844 8.61578 22.42 8.70307C22.2911 8.87767 22.1023 9.12416 21.8575 9.41791C21.5605 9.77434 21.1783 10.2019 20.7198 10.6591L22.5303 12.4697C22.8232 12.7626 22.8232 13.2373 22.5303 13.5302C22.2374 13.8231 21.7627 13.8231 21.4698 13.5302L19.6124 11.6728C18.6551 12.4775 17.4723 13.2883 16.1007 13.8759L17.1436 15.6142C17.3565 15.9693 17.2409 16.4304 16.8858 16.6435C16.5307 16.8564 16.0696 16.7408 15.8565 16.3857L14.6563 14.3857C13.8235 14.6143 12.9361 14.7499 12.0001 14.7499C11.0637 14.7499 10.176 14.6144 9.34284 14.3857L8.14362 16.3857C7.93057 16.7408 7.46947 16.8564 7.11432 16.6435C6.75923 16.4304 6.64364 15.9693 6.85651 15.6142L7.8985 13.8759C6.52695 13.2883 5.344 12.4775 4.38679 11.6728L2.53034 13.5302C2.23745 13.8231 1.76269 13.8231 1.46979 13.5302C1.1769 13.2373 1.1769 12.7626 1.46979 12.4697L3.27936 10.6591C2.82112 10.2021 2.43957 9.77422 2.14265 9.41791C1.89785 9.12416 1.70902 8.87767 1.58015 8.70307C1.51571 8.61578 1.46587 8.54582 1.43171 8.49702C1.41491 8.47301 1.40193 8.45397 1.39265 8.44037C1.38797 8.43353 1.38365 8.42781 1.38093 8.42377C1.37965 8.42188 1.37883 8.42014 1.378 8.41889L1.37702 8.41694H1.37604C1.37587 8.41668 1.37603 8.41597 2.00007 7.99994L1.37604 8.41596C1.14628 8.07131 1.2394 7.60569 1.58405 7.37592C1.9287 7.14616 2.39433 7.23928 2.62409 7.58393V7.58295C2.6242 7.58311 2.62448 7.58404 2.62507 7.58491C2.62626 7.58668 2.62796 7.59032 2.63093 7.59467C2.63709 7.60369 2.64763 7.61826 2.6612 7.63764C2.68856 7.67671 2.73075 7.736 2.78718 7.81244C2.90047 7.96593 3.07115 8.18837 3.29499 8.45698C3.74374 8.99547 4.40232 9.71401 5.23835 10.4306C6.92223 11.8739 9.25358 13.2499 12.0001 13.2499C14.7465 13.2499 17.0779 11.8739 18.7618 10.4306C19.5978 9.71401 20.2564 8.99547 20.7051 8.45698C20.929 8.18837 21.0997 7.96593 21.213 7.81244C21.2694 7.736 21.3116 7.67671 21.3389 7.63764C21.3525 7.61826 21.363 7.60369 21.3692 7.59467C21.3722 7.59032 21.3739 7.58668 21.3751 7.58491C21.3757 7.58404 21.3759 7.58311 21.376 7.58295V7.58393L21.4219 7.52241Z" fill="#464649"/>
</svg>
