<svg width="24" height="24" viewBox="0 0 24 24" fill="none" xmlns="http://www.w3.org/2000/svg">
<path d="M12 4.25C17.0032 4.25 20.9973 7.37198 22.6983 11.7275C22.7667 11.9029 22.7667 12.0971 22.6983 12.2725C20.9973 16.628 17.0032 19.75 12 19.75C6.99692 19.75 3.00277 16.628 1.3018 12.2725C1.23339 12.0971 1.23339 11.9029 1.3018 11.7275C3.00277 7.37198 6.99692 4.25 12 4.25ZM12 5.75C7.77841 5.75 4.36443 8.30784 2.80961 12C4.36443 15.6922 7.77841 18.25 12 18.25C16.2215 18.25 19.6346 15.692 21.1895 12C19.6346 8.30803 16.2215 5.75 12 5.75ZM14.25 12C14.25 11.4033 14.0128 10.8311 13.5909 10.4092C13.1689 9.98722 12.5968 9.75 12 9.75C11.4033 9.75 10.8312 9.98722 10.4092 10.4092C9.98726 10.8311 9.75004 11.4033 9.75004 12C9.75004 12.5967 9.98726 13.1689 10.4092 13.5908C10.8312 14.0128 11.4033 14.25 12 14.25C12.5968 14.25 13.1689 14.0128 13.5909 13.5908C14.0128 13.1689 14.25 12.5967 14.25 12ZM15.75 12C15.75 12.9946 15.3547 13.9481 14.6514 14.6514C13.9481 15.3546 12.9946 15.75 12 15.75C11.0055 15.75 10.0519 15.3546 9.34867 14.6514C8.64541 13.9481 8.25004 12.9946 8.25004 12C8.25004 11.0054 8.64541 10.0519 9.34867 9.34863C10.0519 8.64537 11.0055 8.25 12 8.25C12.9946 8.25 13.9481 8.64537 14.6514 9.34863C15.3547 10.0519 15.75 11.0054 15.75 12Z" fill="#464649"/>
</svg>
