<svg width="16" height="16" viewBox="0 0 16 16" fill="none" xmlns="http://www.w3.org/2000/svg">
<path d="M8.16327 6.54541V9.6436H12.5566C12.3637 10.64 11.7848 11.4836 10.9165 12.0509L13.5659 14.0655C15.1095 12.6691 16 10.6182 16 8.18185C16 7.61459 15.9481 7.06908 15.8516 6.5455L8.16327 6.54541Z" fill="#4285F4"/>
<path d="M3.58841 9.52264L2.99088 9.9709L0.875793 11.5854C2.21903 14.1963 4.9721 16 8.16321 16C10.3673 16 12.2151 15.2872 13.5658 14.0654L10.9164 12.0509C10.1892 12.5309 9.2615 12.8218 8.16321 12.8218C6.04075 12.8218 4.23744 11.4182 3.59175 9.52726L3.58841 9.52264Z" fill="#34A853"/>
<path d="M0.875641 4.41455C0.31908 5.49087 0 6.70543 0 7.99996C0 9.29448 0.31908 10.509 0.875641 11.5854C0.875641 11.5926 3.59186 9.51991 3.59186 9.51991C3.42859 9.03991 3.33209 8.53085 3.33209 7.99987C3.33209 7.46889 3.42859 6.95984 3.59186 6.47984L0.875641 4.41455Z" fill="#FBBC05"/>
<path d="M8.16337 3.18545C9.36563 3.18545 10.4343 3.59271 11.2877 4.37818L13.6254 2.0873C12.2079 0.792777 10.3675 0 8.16337 0C4.97227 0 2.21903 1.79636 0.875793 4.41455L3.59193 6.48001C4.23753 4.58908 6.04091 3.18545 8.16337 3.18545Z" fill="#EA4335"/>
</svg>
