<svg width="24" height="24" viewBox="0 0 24 24" fill="none" xmlns="http://www.w3.org/2000/svg">
<path d="M5.71463 13.251C6.35043 13.2574 7.1238 13.3465 7.76248 13.8145L9.52518 15.1045C9.87886 15.3635 10.2299 15.3063 11.0603 15.1768C11.9492 15.0372 12.7284 15.4303 13.2166 16.0732L16.7762 14.4287C16.7987 14.4183 16.822 14.4095 16.8455 14.4014C17.3428 14.2295 17.8795 14.2052 18.3904 14.3311C18.8993 14.4565 19.3616 14.7256 19.7215 15.1064L20.3924 15.8076C20.9596 16.3995 20.8413 17.3974 20.1131 17.8193L20.1121 17.8184L12.2596 22.3799L12.2586 22.3789C11.9385 22.5659 11.5837 22.6861 11.2156 22.7305C10.8465 22.7749 10.4722 22.7431 10.116 22.6367L3.78494 20.7461C3.38814 20.6275 3.16261 20.2093 3.28104 19.8125C3.39958 19.4156 3.81774 19.19 4.21463 19.3086L10.5457 21.1992C10.7047 21.2467 10.8721 21.2611 11.0369 21.2412C11.2016 21.2213 11.3606 21.1679 11.5037 21.084L11.5066 21.082L19.1277 16.6562L18.6375 16.1436L18.6336 16.1387C18.4712 15.966 18.2622 15.8439 18.032 15.7871C17.808 15.7319 17.5732 15.7417 17.3543 15.8135L13.74 17.4834C13.7438 17.5407 13.7498 17.5983 13.7498 17.6562C13.7497 17.8925 13.6488 18.0645 13.5887 18.1494C13.5236 18.2412 13.4498 18.3102 13.3953 18.3564C13.2853 18.4497 13.1562 18.5308 13.0418 18.5957C12.8062 18.7294 12.507 18.8668 12.2234 18.9893C11.9349 19.1138 11.6392 19.2328 11.4021 19.3271C11.1452 19.4294 10.9952 19.4885 10.948 19.5107C10.5368 19.7051 10.0803 19.7831 9.62772 19.7373C9.17517 19.6915 8.74357 19.5229 8.37967 19.25L6.39822 17.7979C6.06431 17.553 5.9924 17.084 6.23709 16.75C6.4819 16.416 6.95086 16.3432 7.28494 16.5879L9.27322 18.0449L9.28006 18.0498C9.42562 18.1589 9.59809 18.2268 9.77908 18.2451C9.9601 18.2634 10.1429 18.2321 10.3074 18.1543L10.3084 18.1533C10.4111 18.1049 10.6322 18.0183 10.8474 17.9326C11.0831 17.8389 11.3617 17.7276 11.6287 17.6123C11.853 17.5155 12.0531 17.4202 12.2078 17.3389C12.0856 16.889 11.7113 16.6414 11.3738 16.6514L11.2928 16.6592C10.662 16.7575 9.59456 17.0151 8.63846 16.3145L6.87674 15.0254L6.87576 15.0244C6.62562 14.8412 6.24657 14.7555 5.69901 14.75C5.43381 14.7473 5.15916 14.7631 4.86893 14.7812C4.58939 14.7988 4.28258 14.8203 3.99979 14.8203C3.58569 14.8203 3.24998 14.4844 3.24979 14.0703C3.24979 13.6561 3.58557 13.3203 3.99979 13.3203C4.22449 13.3203 4.47597 13.3029 4.77518 13.2842C5.06333 13.2661 5.38819 13.2477 5.71463 13.251ZM13.3513 7C13.3513 5.80288 12.8933 4.68573 12.4031 3.84082C12.2657 3.60393 12.128 3.39277 12.0017 3.21191C11.8755 3.39277 11.7378 3.60393 11.6004 3.84082C11.1102 4.68573 10.6521 5.80288 10.6521 7C10.6521 8.19712 11.1102 9.31427 11.6004 10.1592C11.7376 10.3958 11.8757 10.6064 12.0017 10.7871C12.1278 10.6064 12.2658 10.3958 12.4031 10.1592C12.8933 9.31427 13.3513 8.19712 13.3513 7ZM14.8513 7C14.8513 8.56388 14.2607 9.94727 13.701 10.9121C13.6892 10.9325 13.6757 10.9517 13.6638 10.9717C14.5858 10.7214 15.6544 10.2631 16.4666 9.43457C17.3024 8.58118 17.7569 7.44967 17.9988 6.48633C18.0704 6.20119 18.12 5.93569 18.157 5.70508C17.7184 5.7795 17.1613 5.90769 16.5808 6.13086C16.1943 6.27947 15.7608 6.08671 15.6121 5.7002C15.4634 5.31359 15.6562 4.88012 16.0428 4.73145C16.8162 4.43404 17.5442 4.27923 18.0769 4.19824C18.3443 4.15761 18.5656 4.13446 18.7224 4.12207C18.8008 4.11588 18.8635 4.11252 18.908 4.11035C18.9301 4.10927 18.9478 4.10788 18.9607 4.10742H18.9851L19.0613 4.10938C19.2381 4.12344 19.4054 4.19967 19.532 4.32617C19.6767 4.47077 19.7561 4.66853 19.7517 4.87305V4.87891C19.7517 4.88162 19.7509 4.88543 19.7508 4.88965C19.7505 4.89806 19.7504 4.90975 19.7498 4.92383C19.7486 4.95228 19.7471 4.99203 19.7439 5.04199C19.7376 5.14258 19.7266 5.2854 19.7068 5.46094C19.6674 5.81123 19.5928 6.29821 19.4539 6.85156C19.179 7.94613 18.6345 9.36604 17.5379 10.4854C16.4397 11.6057 15.0443 12.1637 13.9666 12.4453C13.4222 12.5876 12.9432 12.6628 12.5984 12.7031C12.4257 12.7233 12.2855 12.7347 12.1863 12.7412C12.1369 12.7444 12.0974 12.7468 12.0691 12.748C12.0551 12.7486 12.0433 12.7488 12.0349 12.749C12.0307 12.7492 12.0269 12.7499 12.0242 12.75H11.9793C11.9765 12.7499 11.9727 12.7492 11.9685 12.749C11.9602 12.7488 11.9491 12.7486 11.9353 12.748C11.9071 12.7468 11.8668 12.7444 11.8172 12.7412C11.7179 12.7347 11.5777 12.7233 11.4051 12.7031C11.0602 12.6628 10.5812 12.5875 10.0369 12.4453C8.95932 12.1637 7.56465 11.6054 6.46658 10.4854C5.36996 9.36603 4.82443 7.94613 4.54959 6.85156C4.41068 6.29826 4.33706 5.81122 4.29764 5.46094C4.27789 5.2854 4.26586 5.14258 4.25955 5.04199C4.25642 4.99203 4.25487 4.95228 4.25369 4.92383C4.25311 4.90975 4.25298 4.89806 4.25272 4.88965C4.25259 4.88543 4.25181 4.88162 4.25174 4.87891V4.87305C4.24736 4.66853 4.32677 4.47077 4.47147 4.32617C4.61615 4.18162 4.81387 4.10291 5.01834 4.10742H5.04276C5.05569 4.10788 5.07335 4.10927 5.09549 4.11035C5.13996 4.11252 5.20271 4.11589 5.28104 4.12207C5.43788 4.13446 5.65927 4.15762 5.92654 4.19824C6.45928 4.27923 7.18727 4.43405 7.96072 4.73145C8.34734 4.8801 8.54005 5.31358 8.39139 5.7002C8.24267 6.0867 7.8092 6.2795 7.42264 6.13086C6.84178 5.90752 6.28429 5.77947 5.84549 5.70508C5.88251 5.93573 5.93306 6.20112 6.00467 6.48633C6.24657 7.44966 6.70111 8.58118 7.5369 9.43457C8.349 10.2631 9.41769 10.7214 10.3396 10.9717C10.3279 10.9518 10.3152 10.9323 10.3035 10.9121C9.74371 9.94727 9.15213 8.56388 9.15213 7C9.15213 5.43612 9.74371 4.05273 10.3035 3.08789C10.5862 2.60073 10.8687 2.20659 11.0818 1.93262C11.1886 1.7954 11.2787 1.68752 11.3435 1.6123C11.376 1.57467 11.4018 1.54439 11.4207 1.52344C11.4301 1.51299 11.4385 1.50518 11.4441 1.49902C11.4469 1.49598 11.4491 1.49318 11.451 1.49121C11.4518 1.49027 11.4523 1.48897 11.4529 1.48828L11.4539 1.4873C11.5957 1.33615 11.7945 1.25001 12.0017 1.25C12.209 1.25 12.4068 1.33614 12.5486 1.4873L12.5506 1.48828C12.5512 1.48896 12.5517 1.49029 12.5525 1.49121C12.5544 1.4932 12.5575 1.49594 12.5603 1.49902C12.5659 1.50513 12.5736 1.5132 12.5828 1.52344C12.6017 1.54439 12.6275 1.57467 12.6599 1.6123C12.7248 1.68752 12.8149 1.79537 12.9217 1.93262C13.1349 2.20667 13.4182 2.60052 13.701 3.08789C14.2607 4.05273 14.8513 5.43612 14.8513 7Z" fill="#464649"/>
</svg>
