<svg width="14" height="14" viewBox="0 0 14 14" fill="none" xmlns="http://www.w3.org/2000/svg">
<path d="M11.9583 7C11.9583 5.67733 11.9571 4.74382 11.8621 4.03719C11.7693 3.34745 11.5968 2.96184 11.3175 2.68254C11.0382 2.40323 10.6525 2.23069 9.96281 2.13794C9.25618 2.04294 8.32267 2.04167 7 2.04167C5.67733 2.04167 4.74382 2.04294 4.03719 2.13794C3.34745 2.23069 2.96184 2.40323 2.68254 2.68254C2.40323 2.96184 2.23069 3.34745 2.13794 4.03719C2.04294 4.74382 2.04167 5.67733 2.04167 7C2.04167 8.32267 2.04294 9.25618 2.13794 9.96281C2.23069 10.6525 2.40323 11.0382 2.68254 11.3175C2.96184 11.5968 3.34745 11.7693 4.03719 11.8621C4.74382 11.9571 5.67733 11.9583 7 11.9583C8.32267 11.9583 9.25618 11.9571 9.96281 11.8621C10.6525 11.7693 11.0382 11.5968 11.3175 11.3175C11.5968 11.0382 11.7693 10.6525 11.8621 9.96281C11.9571 9.25618 11.9583 8.32267 11.9583 7ZM9.04167 7C9.04167 5.87242 8.12758 4.95833 7 4.95833C5.87242 4.95833 4.95833 5.87242 4.95833 7C4.95833 8.12758 5.87242 9.04167 7 9.04167C8.12758 9.04167 9.04167 8.12758 9.04167 7ZM10.2129 3.20833C10.5351 3.20833 10.7962 3.4695 10.7962 3.79167C10.7962 4.11383 10.5351 4.375 10.2129 4.375H10.2078C9.8856 4.375 9.62443 4.11383 9.62443 3.79167C9.62443 3.4695 9.8856 3.20833 10.2078 3.20833H10.2129ZM10.2083 7C10.2083 8.77191 8.77191 10.2083 7 10.2083C5.22809 10.2083 3.79167 8.77191 3.79167 7C3.79167 5.22809 5.22809 3.79167 7 3.79167C8.77191 3.79167 10.2083 5.22809 10.2083 7ZM13.125 7C13.125 8.28969 13.1264 9.31589 13.0185 10.1183C12.9083 10.9374 12.6745 11.6102 12.1423 12.1423C11.6102 12.6745 10.9374 12.9083 10.1183 13.0185C9.31589 13.1264 8.28969 13.125 7 13.125C5.71031 13.125 4.68411 13.1264 3.88167 13.0185C3.06255 12.9083 2.38985 12.6745 1.85767 12.1423C1.32549 11.6102 1.09168 10.9374 0.981528 10.1183C0.873642 9.31589 0.875001 8.28969 0.875001 7C0.875001 5.71031 0.873642 4.68411 0.981528 3.88167C1.09168 3.06255 1.32549 2.38985 1.85767 1.85767C2.38985 1.32549 3.06255 1.09168 3.88167 0.981528C4.68411 0.873642 5.71031 0.875001 7 0.875001C8.28969 0.875001 9.31589 0.873642 10.1183 0.981528C10.9374 1.09168 11.6102 1.32549 12.1423 1.85767C12.6745 2.38985 12.9083 3.06255 13.0185 3.88167C13.1264 4.68411 13.125 5.71031 13.125 7Z" fill="white"/>
</svg>
