<svg width="24" height="24" viewBox="0 0 24 24" fill="none" xmlns="http://www.w3.org/2000/svg">
<path d="M21.25 12C21.25 7.00942 17.2978 2.94314 12.3525 2.75781C11.7883 3.26997 11.7036 3.78011 11.7686 4.17383C11.8522 4.68072 12.1897 5.06558 12.4297 5.18262C12.5958 5.26353 12.8685 5.2727 13.1934 5.20605C13.3409 5.17576 13.4719 5.13531 13.5654 5.10254C13.6116 5.08635 13.6475 5.07253 13.6699 5.06348C13.6808 5.05908 13.6883 5.05545 13.6924 5.05371L13.6934 5.05273V5.05371L13.7646 5.02539C14.1253 4.90577 14.5256 5.0765 14.6846 5.43066C14.8541 5.8086 14.6846 6.25235 14.3066 6.42188V6.42285H14.3057L14.3027 6.42383C14.3013 6.42448 14.2998 6.42591 14.2979 6.42676C14.2937 6.42858 14.2885 6.43092 14.2822 6.43359C14.2695 6.43901 14.2523 6.44569 14.2314 6.4541C14.1898 6.47091 14.1321 6.49284 14.0615 6.51758C13.9215 6.56666 13.7242 6.62776 13.4951 6.6748C13.0668 6.76274 12.3904 6.83083 11.7734 6.53027C11.0582 6.18186 10.4448 5.36131 10.2891 4.41797C10.2064 3.9167 10.252 3.39034 10.459 2.87988C6.08402 3.61371 2.75 7.41652 2.75 12C2.75 17.1086 6.89137 21.25 12 21.25C17.1086 21.25 21.25 17.1086 21.25 12ZM15.4004 14.5498C15.6491 14.2186 16.119 14.1517 16.4502 14.4004C16.7814 14.6491 16.8483 15.119 16.5996 15.4502C15.5519 16.8451 13.8816 17.75 12 17.75C10.1184 17.75 8.44806 16.8451 7.40039 15.4502C7.15172 15.119 7.21863 14.6491 7.5498 14.4004C7.881 14.1517 8.35088 14.2186 8.59961 14.5498C9.37619 15.5837 10.6103 16.25 12 16.25C13.3897 16.25 14.6238 15.5837 15.4004 14.5498ZM8.00879 8.25C8.423 8.25 8.75879 8.58579 8.75879 9C8.75879 9.41421 8.423 9.75 8.00879 9.75H8C7.58579 9.75 7.25 9.41421 7.25 9C7.25 8.58579 7.58579 8.25 8 8.25H8.00879ZM16 8.25C16.4142 8.25 16.75 8.58579 16.75 9C16.75 9.41421 16.4142 9.75 16 9.75H15.9912C15.577 9.75 15.2412 9.41421 15.2412 9C15.2412 8.58579 15.577 8.25 15.9912 8.25H16ZM22.75 12C22.75 17.9371 17.9371 22.75 12 22.75C6.06294 22.75 1.25 17.9371 1.25 12C1.25 6.06294 6.06294 1.25 12 1.25C12.015 1.25 12.03 1.25189 12.0449 1.25195C12.0491 1.25169 12.0534 1.25214 12.0576 1.25195C17.9682 1.28298 22.75 6.08216 22.75 12Z" fill="#464649"/>
</svg>
