<svg width="24" height="24" viewBox="0 0 24 24" fill="none" xmlns="http://www.w3.org/2000/svg">
<path d="M19.2502 6.5C19.2502 5.53599 19.2487 4.88831 19.1838 4.40528C19.1218 3.94388 19.0143 3.74652 18.884 3.61621C18.7537 3.48591 18.5563 3.37845 18.0949 3.31641C17.6119 3.25147 16.9642 3.25 16.0002 3.25H8.00021C7.0362 3.25 6.38852 3.25147 5.90548 3.31641C5.44409 3.37845 5.24673 3.48591 5.11642 3.61621C4.98611 3.74652 4.87866 3.94388 4.81661 4.40528C4.75167 4.88831 4.75021 5.53599 4.75021 6.5V13.75H19.2502V6.5ZM4.16525 15.8584C4.16273 15.8633 4.16006 15.8682 4.15743 15.873C3.44084 17.1949 3.0282 18.1245 2.85079 18.8193C2.67956 19.4901 2.74641 19.8625 2.9006 20.1426C3.00832 20.3381 3.22311 20.524 3.93087 20.6348C4.6546 20.748 5.6742 20.75 7.15451 20.75H16.8459C18.3262 20.75 19.3458 20.748 20.0695 20.6348C20.7773 20.524 20.9921 20.3381 21.0998 20.1426C21.254 19.8625 21.3209 19.4901 21.1496 18.8193C20.9722 18.1245 20.5596 17.1949 19.843 15.873L19.5051 15.25H4.47775L4.16525 15.8584ZM12.009 4.75C12.4232 4.75 12.759 5.08579 12.759 5.5C12.759 5.91422 12.4232 6.25 12.009 6.25H12.0002C11.586 6.25 11.2502 5.91422 11.2502 5.5C11.2502 5.08579 11.586 4.75 12.0002 4.75H12.009ZM20.7502 14.3975L21.1623 15.1582C21.8883 16.4973 22.3768 17.5635 22.6027 18.4482C22.8348 19.3571 22.8074 20.1492 22.4133 20.8652C21.9726 21.6657 21.1852 21.978 20.302 22.1162C19.6513 22.218 18.8351 22.2423 17.8654 22.248L16.8459 22.25H7.15451C5.72719 22.25 4.56579 22.252 3.69845 22.1162C2.81523 21.978 2.02784 21.6657 1.58712 20.8652C1.193 20.1492 1.16566 19.3571 1.39767 18.4482C1.59538 17.674 1.99426 16.7609 2.57736 15.6475L2.8381 15.1582L3.25021 14.3564V6.5C3.25021 5.57839 3.24878 4.8113 3.33029 4.20508C3.41472 3.57747 3.60051 3.01103 4.05587 2.55567C4.51123 2.10031 5.07767 1.91451 5.70529 1.83008C6.31151 1.74858 7.0786 1.75 8.00021 1.75H16.0002C16.9218 1.75 17.6889 1.74858 18.2951 1.83008C18.9227 1.91451 19.4892 2.10031 19.9445 2.55567C20.3999 3.01103 20.5857 3.57747 20.6701 4.20508C20.7516 4.8113 20.7502 5.57839 20.7502 6.5V14.3975Z" fill="#464649"/>
</svg>
