<svg width="24" height="24" viewBox="0 0 24 24" fill="none" xmlns="http://www.w3.org/2000/svg">
<path d="M12 2.25C12.3328 2.25 12.7399 2.32606 13.1582 2.43262C13.59 2.54262 14.0854 2.6989 14.6123 2.88574C15.6667 3.25963 16.8823 3.76947 18.0342 4.32031C19.1827 4.86954 20.2913 5.47023 21.123 6.03027C21.5361 6.30838 21.906 6.5937 22.1816 6.87305C22.3195 7.0128 22.4516 7.16898 22.5527 7.33887C22.651 7.50399 22.75 7.73169 22.75 8C22.75 8.26831 22.651 8.49601 22.5527 8.66113C22.4516 8.83102 22.3195 8.9872 22.1816 9.12695C21.9348 9.37712 21.6114 9.63066 21.25 9.88086V16.3496C21.3898 16.6659 21.5988 17.0268 21.874 17.5654C22.1619 18.1289 22.4728 18.8094 22.6582 19.5898C22.7816 20.1092 22.8554 20.7965 22.3662 21.2871C22.1372 21.5167 21.8551 21.6245 21.6064 21.6797C21.3584 21.7347 21.086 21.75 20.8154 21.75H20.1846C19.914 21.75 19.6416 21.7347 19.3936 21.6797C19.1449 21.6245 18.8628 21.5167 18.6338 21.2871C18.1446 20.7965 18.2184 20.1092 18.3418 19.5898C18.5272 18.8094 18.8381 18.1289 19.126 17.5654C19.4012 17.0268 19.6102 16.6659 19.75 16.3496V10.7988C19.4254 10.9785 19.0842 11.1559 18.7354 11.332L18.5039 16.6621C18.4978 16.8027 18.4816 16.9867 18.4229 17.1807C18.2856 17.6339 18.0175 18.0929 17.5693 18.4141C16.8996 18.8939 16.0108 19.2219 15.0664 19.4326C14.1122 19.6456 13.0516 19.75 12 19.75C10.9484 19.75 9.88783 19.6456 8.93359 19.4326C7.98924 19.2219 7.10042 18.8939 6.43066 18.4141C5.9825 18.0929 5.71442 17.6339 5.57715 17.1807C5.51844 16.9867 5.50222 16.8027 5.49609 16.6621L5.26367 11.332C4.37309 10.8823 3.53718 10.4143 2.87695 9.96973C2.46395 9.69162 2.09398 9.4063 1.81836 9.12695C1.6805 8.9872 1.54845 8.83102 1.44727 8.66113C1.34896 8.49601 1.25 8.26831 1.25 8C1.25 7.73169 1.34896 7.50399 1.44727 7.33887C1.54845 7.16898 1.6805 7.0128 1.81836 6.87305C2.09398 6.5937 2.46395 6.30838 2.87695 6.03027C3.70867 5.47023 4.81731 4.86954 5.96582 4.32031C7.11775 3.76947 8.33334 3.25963 9.3877 2.88574C9.9146 2.6989 10.41 2.54262 10.8418 2.43262C11.2601 2.32606 11.6672 2.25 12 2.25ZM20.4619 18.248C20.1953 18.7698 19.9456 19.3268 19.8008 19.9365C19.7703 20.0647 19.7588 20.1568 19.7539 20.2197C19.8463 20.2362 19.9833 20.25 20.1846 20.25H20.8154C21.016 20.25 21.1527 20.2362 21.2451 20.2197C21.2402 20.1568 21.2297 20.0647 21.1992 19.9365C21.0544 19.3268 20.8047 18.7698 20.5381 18.248C20.5258 18.2241 20.5126 18.2001 20.5 18.1758C20.4874 18.2001 20.4742 18.2241 20.4619 18.248ZM17.2021 12.0645C16.3115 12.465 15.4154 12.8295 14.6123 13.1143C14.0854 13.3011 13.59 13.4574 13.1582 13.5674C12.7399 13.6739 12.3328 13.75 12 13.75C11.6672 13.75 11.2601 13.6739 10.8418 13.5674C10.41 13.4574 9.9146 13.3011 9.3877 13.1143C8.58434 12.8294 7.68784 12.4652 6.79688 12.0645L6.99512 16.5977C6.99882 16.6821 7.00607 16.7242 7.0127 16.7461C7.07759 16.9603 7.18338 17.108 7.30371 17.1943C7.74612 17.5114 8.41865 17.781 9.25977 17.9688C10.0913 18.1543 11.0413 18.25 12 18.25C12.9587 18.25 13.9087 18.1543 14.7402 17.9688C15.5814 17.781 16.2539 17.5114 16.6963 17.1943C16.8166 17.108 16.9224 16.9603 16.9873 16.7461C16.9939 16.7242 17.0012 16.6821 17.0049 16.5977L17.2021 12.0645ZM12 3.75C11.8594 3.75 11.5992 3.78806 11.2119 3.88672C10.838 3.982 10.3889 4.12277 9.88965 4.2998C8.89149 4.65376 7.72456 5.14242 6.61328 5.67383C5.49875 6.2068 4.46207 6.77126 3.71484 7.27441C3.33845 7.52786 3.06078 7.74932 2.88574 7.92676C2.85946 7.95341 2.83826 7.97852 2.81934 8C2.83826 8.02148 2.85946 8.04659 2.88574 8.07324C3.06078 8.25068 3.33845 8.47214 3.71484 8.72559C4.46207 9.22874 5.49875 9.7932 6.61328 10.3262C7.72456 10.8576 8.89149 11.3462 9.88965 11.7002C10.3889 11.8772 10.838 12.018 11.2119 12.1133C11.5992 12.2119 11.8594 12.25 12 12.25C12.1406 12.25 12.4008 12.2119 12.7881 12.1133C13.162 12.018 13.6111 11.8772 14.1104 11.7002C15.1085 11.3462 16.2754 10.8576 17.3867 10.3262C18.5012 9.7932 19.5379 9.22874 20.2852 8.72559C20.6616 8.47214 20.9392 8.25068 21.1143 8.07324C21.1403 8.04679 21.1609 8.02135 21.1797 8C21.1609 7.97865 21.1403 7.95321 21.1143 7.92676C20.9392 7.74932 20.6616 7.52786 20.2852 7.27441C19.5379 6.77126 18.5012 6.2068 17.3867 5.67383C16.2754 5.14242 15.1085 4.65376 14.1104 4.2998C13.6111 4.12277 13.162 3.982 12.7881 3.88672C12.4008 3.78806 12.1406 3.75 12 3.75Z" fill="#464649"/>
</svg>
