<svg width="24" height="24" viewBox="0 0 24 24" fill="none" xmlns="http://www.w3.org/2000/svg">
<path d="M1.25 11.8994C1.25 6.64887 4.97839 2.27007 9.93164 1.26462C10.3375 1.18229 10.7329 1.44481 10.8154 1.85055C10.8978 2.25637 10.6362 2.65276 10.2305 2.73532C5.96252 3.60167 2.75 7.3763 2.75 11.8994C2.75002 12.2977 2.77684 12.69 2.8252 13.0752C3.09997 12.9392 3.42914 12.776 3.78711 12.6347L4.33789 14.0293C3.98131 14.1699 3.67188 14.3316 3.3291 14.499C3.26648 14.5296 3.20107 14.5474 3.13574 14.5595C4.28187 18.4275 7.86085 21.2498 12.1006 21.25C14.8248 21.25 17.2761 20.083 18.9854 18.2236L18.9375 18L18.7783 17.2666C19.0943 17.198 19.3792 17.0913 19.6328 16.9492L19.7861 17.2226C20.4954 16.2007 21.0084 15.032 21.2646 13.7695L22.7354 14.0683C21.7299 19.0216 17.3511 22.75 12.1006 22.75C6.10808 22.7497 1.25024 17.8919 1.25 11.8994ZM14.9883 16.6533C15.5466 16.8978 16.0771 17.076 16.5742 17.1914L16.4053 17.9218L16.2354 18.6523C15.6377 18.5137 15.0194 18.3045 14.3867 18.0273L14.9883 16.6533ZM11.9395 14.8115C12.1565 14.9732 12.3652 15.1289 12.5693 15.2715L12.1406 15.8867L11.7109 16.5009C11.485 16.3432 11.2576 16.1745 11.043 16.0146C10.8248 15.8521 10.6201 15.6993 10.4238 15.5615L11.2852 14.334C11.5022 14.4864 11.7258 14.6524 11.9395 14.8115ZM16.5 1.24997C18.9404 1.24997 21.283 2.66648 22.2686 4.92868C23.1888 7.04125 22.6822 8.85151 21.6631 10.3672C20.6822 11.8259 19.1666 13.0947 17.9951 14.1718C17.5881 14.5461 17.0516 14.75 16.5 14.75C15.9484 14.7499 15.4119 14.546 15.0049 14.1718L15.0029 14.1709C13.8365 13.092 12.3201 11.8222 11.3389 10.3662C10.3187 8.85208 9.81023 7.04366 10.7314 4.92868C11.717 2.66652 14.0597 1.25001 16.5 1.24997ZM6.53418 12.2548C7.17601 12.3262 7.87607 12.507 8.64844 12.832L8.06641 14.2148C7.41005 13.9386 6.85 13.7986 6.36816 13.7451L6.53418 12.2548ZM16.5 2.74997C14.6108 2.75001 12.8359 3.85293 12.1064 5.52731C11.4421 7.05225 11.7672 8.31766 12.583 9.52829C13.438 10.7971 14.7612 11.9036 16.0215 13.0693C16.1443 13.1818 16.3149 13.2499 16.5 13.25C16.6856 13.25 16.8575 13.1813 16.9805 13.0683C18.2416 11.9088 19.5646 10.7994 20.418 9.53024C21.2331 8.31797 21.557 7.05029 20.8936 5.52731C20.1641 3.85289 18.3892 2.74997 16.5 2.74997ZM17.25 7.49997C17.25 7.08575 16.9142 6.74997 16.5 6.74997C16.0858 6.74997 15.75 7.08575 15.75 7.49997C15.75 7.91418 16.0858 8.24997 16.5 8.24997C16.9142 8.24997 17.25 7.91418 17.25 7.49997ZM18.75 7.49997C18.75 8.74261 17.7426 9.74997 16.5 9.74997C15.2574 9.74997 14.25 8.74261 14.25 7.49997C14.25 6.25733 15.2574 5.24997 16.5 5.24997C17.7426 5.24997 18.75 6.25733 18.75 7.49997Z" fill="#464649"/>
</svg>
