<svg width="24" height="24" viewBox="0 0 24 24" fill="none" xmlns="http://www.w3.org/2000/svg">
<path d="M9.25 18.4996C9.24976 16.981 8.01863 15.7496 6.5 15.7496C4.98137 15.7496 3.75024 16.981 3.75 18.4996C3.75 20.0184 4.98122 21.2496 6.5 21.2496C8.01878 21.2496 9.25 20.0184 9.25 18.4996ZM20.25 15.9996C20.2498 14.7572 19.2425 13.7496 18 13.7496C16.7575 13.7496 15.7502 14.7572 15.75 15.9996C15.75 17.2422 16.7574 18.2496 18 18.2496C19.2426 18.2496 20.25 17.2422 20.25 15.9996ZM21.75 15.9996C21.75 18.0707 20.0711 19.7496 18 19.7496C15.9289 19.7496 14.25 18.0707 14.25 15.9996C14.2502 13.9287 15.9291 12.2496 18 12.2496C18.844 12.2496 19.6233 12.5281 20.25 12.9986V8.25545C18.4751 9.16943 15.1937 10.5882 10.75 10.7349V18.4996C10.75 20.8468 8.84721 22.7496 6.5 22.7496C4.15279 22.7496 2.25 20.8468 2.25 18.4996C2.25024 16.1526 4.15294 14.2496 6.5 14.2496C7.54893 14.2496 8.50873 14.6305 9.25 15.2603V6.99959C9.25 6.55761 9.24916 6.15686 9.28906 5.83358C9.3309 5.49474 9.4285 5.12853 9.71094 4.82088L9.82324 4.71151C10.0926 4.47578 10.4149 4.37175 10.7119 4.31112C11.0431 4.24352 11.4628 4.20879 11.9346 4.16854C15.8277 3.83638 18.6084 2.56706 19.9756 1.76327C20.103 1.68835 20.2657 1.59045 20.4102 1.52987C20.5402 1.47536 20.8989 1.34308 21.2715 1.55623C21.6394 1.76672 21.7104 2.13518 21.7305 2.27987C21.7519 2.43451 21.75 2.62304 21.75 2.7662V15.9996ZM10.75 9.23495C15.4988 9.06736 18.807 7.34891 20.25 6.55623V3.32772C18.618 4.20542 15.8134 5.34263 12.0625 5.66268C11.5533 5.70613 11.2369 5.73488 11.0117 5.78084C10.8867 5.80638 10.8322 5.82943 10.8135 5.83944C10.8047 5.86043 10.7904 5.91172 10.7773 6.01717C10.7514 6.22714 10.75 6.51862 10.75 6.99959V9.23495Z" fill="#464649"/>
</svg>
