<svg width="24" height="24" viewBox="0 0 24 24" fill="none" xmlns="http://www.w3.org/2000/svg">
<path d="M6.25 21C6.25004 19.2459 6.56651 16.6126 7.19824 14.0987C7.73717 11.954 8.53607 9.76876 9.65234 8.30862C8.03369 6.76914 7.7458 4.37903 9.15625 2.54299C9.40861 2.21461 9.87956 2.15299 10.208 2.4053C10.5364 2.65766 10.598 3.12861 10.3457 3.45706C9.3627 4.73677 9.60906 6.45457 11.0068 7.49319L11.1455 7.59182L15.8525 10.7696C16.3444 11.1016 16.7753 11.3903 17.0791 11.6573C17.3445 11.8904 17.6236 12.1995 17.7168 12.6221L17.7451 12.8106L17.749 13.0059C17.7463 13.0706 17.739 13.1352 17.7285 13.1992C17.6445 13.7116 17.2981 14.0521 16.9756 14.2969C16.6514 14.5429 16.1989 14.8032 15.6797 15.1035L14.7354 15.6494C14.377 15.8565 13.9184 15.7342 13.7109 15.376C13.5035 15.0175 13.6259 14.5581 13.9844 14.3506L14.9287 13.8047C15.4839 13.4835 15.8371 13.2771 16.0684 13.1016C16.1731 13.0221 16.2218 12.9704 16.2432 12.9444C16.2237 12.9175 16.1808 12.865 16.0889 12.7842C15.9816 12.69 15.845 12.5857 15.6689 12.461L15.0137 12.0127L13.5498 11.0244C13.0041 11.8038 12.5993 12.5415 12.2803 13.2149C11.8089 14.21 11.7107 14.4696 11.7324 14.7559C11.7411 14.8696 11.7822 15.0205 11.9326 15.293C12.0883 15.575 12.3216 15.9212 12.6709 16.4375C13.6669 17.9099 14.6324 19.4196 15.5693 20.5127C15.8387 20.8271 15.8025 21.2998 15.4883 21.5694C15.1738 21.8389 14.7002 21.8028 14.4307 21.4883C13.4209 20.3102 12.3838 18.6903 11.4287 17.2783C11.0947 16.7845 10.8153 16.373 10.6191 16.0176C10.5104 15.8205 10.4178 15.6225 10.3496 15.417L8.54395 14.9258C8.01313 17.1925 7.75004 19.4887 7.75 21C7.75 21.4142 7.41421 21.75 7 21.75C6.58579 21.75 6.25 21.4142 6.25 21ZM10.8535 9.20413C10.0843 10.2021 9.43086 11.7341 8.92188 13.4737L10.3701 13.8682C10.4983 13.4617 10.7008 13.0461 10.9248 12.5733C11.271 11.8424 11.7133 11.0372 12.3076 10.1856L10.8535 9.20413ZM15.25 5.50003C15.25 5.08581 14.9142 4.75003 14.5 4.75003C14.0858 4.75003 13.75 5.08581 13.75 5.50003C13.75 5.91424 14.0858 6.25003 14.5 6.25003C14.9142 6.25003 15.25 5.91424 15.25 5.50003ZM16.75 5.50003C16.75 6.74267 15.7426 7.75003 14.5 7.75003C13.2574 7.75003 12.25 6.74267 12.25 5.50003C12.25 4.25739 13.2574 3.25003 14.5 3.25003C15.7426 3.25003 16.75 4.25739 16.75 5.50003Z" fill="#464649"/>
</svg>
