<svg width="22" height="22" viewBox="0 0 22 22" fill="none" xmlns="http://www.w3.org/2000/svg">
<path d="M20 10.75C20 5.64137 15.8586 1.5 10.75 1.5C5.64137 1.5 1.5 5.64137 1.5 10.75C1.5 15.8586 5.64137 20 10.75 20C10.9954 20 11.1812 20.0072 11.3965 20.001C11.6007 19.9951 11.7531 19.9771 11.8633 19.9463C11.9424 19.9241 11.9724 19.9034 11.9795 19.8975C11.9662 19.9138 12 19.8932 12 19.75C12 19.4047 11.831 19.1194 11.4971 18.624C11.2805 18.3027 10.9721 17.8583 10.8311 17.3232C10.6776 16.7405 10.7313 16.1108 11.0791 15.415C11.5055 14.5623 12.1168 14.0886 12.8926 13.8633C13.5913 13.6604 14.4163 13.667 15.2314 13.667C16.0834 13.667 17.0354 13.6661 18.1436 13.5078C19.0396 13.3798 19.432 13.0694 19.6465 12.7148C19.8954 12.3033 20 11.6835 20 10.75ZM5.56445 13.0254C5.96448 12.9182 6.37609 13.1557 6.4834 13.5557C6.59059 13.9557 6.35305 14.3673 5.95312 14.4746L5.94434 14.4766C5.54424 14.5838 5.13261 14.3464 5.02539 13.9463C4.9184 13.5464 5.15583 13.1356 5.55566 13.0283L5.56445 13.0254ZM16 8.25C16 7.83579 15.6642 7.5 15.25 7.5C14.8358 7.5 14.5 7.83579 14.5 8.25C14.5 8.66421 14.8358 9 15.25 9C15.6642 9 16 8.66421 16 8.25ZM9 7.25C9 6.83579 8.66421 6.5 8.25 6.5C7.83579 6.5 7.5 6.83579 7.5 7.25C7.5 7.66421 7.83579 8 8.25 8C8.66421 8 9 7.66421 9 7.25ZM21.5 10.75C21.5 11.7248 21.4054 12.7049 20.9297 13.4912C20.4195 14.3345 19.5612 14.82 18.3564 14.9922C17.1315 15.1672 16.0831 15.167 15.2314 15.167C14.343 15.167 13.7599 15.1732 13.3105 15.3037C12.9385 15.4118 12.661 15.6049 12.4209 16.085C12.2214 16.484 12.2288 16.7407 12.2812 16.9404C12.3464 17.1878 12.4965 17.4237 12.7402 17.7852C13.0354 18.223 13.5 18.8775 13.5 19.75C13.5 20.1639 13.3894 20.5483 13.1318 20.8574C12.8814 21.1579 12.5555 21.3101 12.2676 21.3906C11.7436 21.5372 11.0882 21.5 10.75 21.5C4.81294 21.5 0 16.6871 0 10.75C0 4.81294 4.81294 0 10.75 0C16.6871 0 21.5 4.81294 21.5 10.75ZM17.5 8.25C17.5 9.49264 16.4926 10.5 15.25 10.5C14.0074 10.5 13 9.49264 13 8.25C13 7.00736 14.0074 6 15.25 6C16.4926 6 17.5 7.00736 17.5 8.25ZM10.5 7.25C10.5 8.49264 9.49264 9.5 8.25 9.5C7.00736 9.5 6 8.49264 6 7.25C6 6.00736 7.00736 5 8.25 5C9.49264 5 10.5 6.00736 10.5 7.25Z" fill="#464649"/>
</svg>
