<svg width="22" height="22" viewBox="0 0 22 22" fill="none" xmlns="http://www.w3.org/2000/svg">
<path d="M20.0014 5.25058C20.0014 3.73546 18.7659 2.5007 17.2338 2.50058C15.9611 2.50058 14.8933 3.35408 14.5688 4.51132C14.888 4.69466 15.1572 4.95328 15.3324 5.32675C15.6264 5.95341 15.5031 6.5707 15.2289 7.14218C15.7337 7.67007 16.4433 8.00058 17.2338 8.00058C18.7659 8.00045 20.0014 6.7657 20.0014 5.25058ZM5.65276 5.50058C4.1667 5.50058 3.13544 5.50264 2.41839 5.60507C1.68558 5.70981 1.56697 5.88219 1.52874 5.96347C1.49304 6.03956 1.43216 6.23197 1.82464 6.84823C2.20882 7.45148 2.87343 8.22574 3.83635 9.34237L7.52483 13.6187C7.61609 13.7246 7.68791 13.8084 7.75139 13.8785C7.81487 13.8084 7.88669 13.7246 7.97796 13.6187L11.6664 9.34237C12.6294 8.22574 13.294 7.45148 13.6782 6.84823C14.0706 6.23197 14.0098 6.03956 13.974 5.96347C13.9358 5.88219 13.8172 5.70981 13.0844 5.60507C12.3673 5.50264 11.3361 5.50058 9.85003 5.50058H5.65276ZM21.5014 5.25058C21.5014 7.60129 19.5872 9.50045 17.2338 9.50058C16.1428 9.50058 15.1465 9.0915 14.392 8.4205C13.9638 8.97209 13.4229 9.60201 12.8022 10.3219L9.1137 14.5982C8.94411 14.7949 8.76597 15.0047 8.59417 15.1549C8.566 15.1795 8.53356 15.2015 8.50139 15.2262V20.0006H9.25139C9.66561 20.0006 10.0014 20.3364 10.0014 20.7506C10.0014 21.1648 9.66561 21.5006 9.25139 21.5006H6.25139C5.83718 21.5006 5.50139 21.1648 5.50139 20.7506C5.50139 20.3364 5.83718 20.0006 6.25139 20.0006H7.00139V15.2262C6.96923 15.2015 6.93678 15.1795 6.90862 15.1549C6.73681 15.0047 6.55868 14.7949 6.38909 14.5982L2.70061 10.3219C1.77116 9.24405 1.01607 8.37156 0.559011 7.6539C0.110377 6.94938 -0.213578 6.14523 0.170339 5.32675C0.55201 4.51322 1.37484 4.23854 2.20647 4.11972C3.05532 3.99846 4.21689 4.00058 5.65276 4.00058H6.36565L6.11077 2.46737C6.09544 2.37619 6.03054 2.30131 5.9428 2.27206L3.51409 1.46249C3.12113 1.33151 2.90849 0.90623 3.03948 0.513272C3.17046 0.120315 3.59574 -0.0923227 3.9887 0.0386631L6.41741 0.848233C7.03236 1.05322 7.48369 1.58188 7.59026 2.22128L7.88714 4.00058H9.85003C11.1914 4.00058 12.2932 3.99959 13.1244 4.09823C13.6295 2.30868 15.2799 1.00058 17.2338 1.00058C19.5872 1.0007 21.5014 2.89986 21.5014 5.25058Z" fill="#464649"/>
</svg>
