<svg width="105" height="104" viewBox="0 0 105 104" fill="none" xmlns="http://www.w3.org/2000/svg">
<rect x="0.333496" width="104" height="104" rx="52" fill="#F1F1F1"/>
<path d="M50.6667 50.3333C50.6667 50.1685 50.6178 50.0074 50.5262 49.8703C50.4347 49.7333 50.3045 49.6265 50.1522 49.5634C50 49.5003 49.8324 49.4838 49.6708 49.516C49.5091 49.5481 49.3606 49.6275 49.2441 49.744C49.1275 49.8606 49.0482 50.0091 49.016 50.1707C48.9839 50.3324 49.0004 50.4999 49.0634 50.6522C49.1265 50.8045 49.2333 50.9346 49.3704 51.0262C49.5074 51.1178 49.6685 51.1666 49.8333 51.1666C50.0544 51.1666 50.2663 51.0788 50.4226 50.9225C50.5789 50.7663 50.6667 50.5543 50.6667 50.3333ZM54.4167 53.7166C54.3221 53.6612 54.2174 53.625 54.1088 53.61C54.0001 53.5951 53.8896 53.6018 53.7836 53.6296C53.6775 53.6575 53.578 53.706 53.4907 53.7724C53.4034 53.8389 53.3301 53.9218 53.275 54.0166C53.1804 54.183 53.0434 54.3213 52.878 54.4175C52.7126 54.5137 52.5247 54.5644 52.3333 54.5644C52.142 54.5644 51.9541 54.5137 51.7886 54.4175C51.6232 54.3213 51.4863 54.183 51.3917 54.0166C51.3365 53.9218 51.2632 53.8389 51.176 53.7724C51.0887 53.706 50.9892 53.6575 50.8831 53.6296C50.777 53.6018 50.6665 53.5951 50.5579 53.61C50.4492 53.625 50.3446 53.6612 50.25 53.7166C50.0594 53.8266 49.92 54.0074 49.8622 54.2197C49.8045 54.4321 49.833 54.6586 49.9417 54.85C50.1834 55.2706 50.5318 55.6201 50.9517 55.8631C51.3716 56.1062 51.8482 56.2341 52.3333 56.2341C52.8185 56.2341 53.2951 56.1062 53.715 55.8631C54.1349 55.6201 54.4833 55.2706 54.725 54.85C54.8336 54.6586 54.8622 54.4321 54.8044 54.2197C54.7467 54.0074 54.6073 53.8266 54.4167 53.7166ZM54.8333 49.5C54.6685 49.5 54.5074 49.5488 54.3704 49.6404C54.2333 49.732 54.1265 49.8621 54.0634 50.0144C54.0004 50.1667 53.9839 50.3342 54.016 50.4959C54.0482 50.6575 54.1275 50.806 54.2441 50.9225C54.3606 51.0391 54.5091 51.1185 54.6708 51.1506C54.8324 51.1828 55 51.1663 55.1522 51.1032C55.3045 51.0401 55.4347 50.9333 55.5262 50.7963C55.6178 50.6592 55.6667 50.4981 55.6667 50.3333C55.6667 50.1123 55.5789 49.9003 55.4226 49.744C55.2663 49.5878 55.0544 49.5 54.8333 49.5ZM52.3333 43.6666C50.6852 43.6666 49.074 44.1554 47.7036 45.071C46.3332 45.9867 45.2651 47.2882 44.6343 48.8109C44.0036 50.3336 43.8386 52.0092 44.1601 53.6257C44.4817 55.2422 45.2753 56.7271 46.4408 57.8925C47.6062 59.058 49.0911 59.8516 50.7076 60.1732C52.3241 60.4947 53.9996 60.3297 55.5224 59.699C57.0451 59.0682 58.3466 58.0001 59.2622 56.6297C60.1779 55.2593 60.6667 53.6481 60.6667 52C60.6667 50.9056 60.4511 49.822 60.0323 48.8109C59.6135 47.7999 58.9997 46.8812 58.2259 46.1074C57.4521 45.3336 56.5334 44.7198 55.5224 44.301C54.5113 43.8822 53.4277 43.6666 52.3333 43.6666ZM52.3333 58.6666C50.7811 58.6733 49.2752 58.1382 48.0753 57.1534C46.8754 56.1687 46.0567 54.7961 45.7604 53.2724C45.4642 51.7487 45.7089 50.1693 46.4524 48.8067C47.196 47.4441 48.3917 46.3837 49.8333 45.8083C49.8248 45.9276 49.8248 46.0473 49.8333 46.1666C49.8333 46.8297 50.0967 47.4656 50.5656 47.9344C51.0344 48.4032 51.6703 48.6666 52.3333 48.6666C52.5544 48.6666 52.7663 48.5788 52.9226 48.4225C53.0789 48.2663 53.1667 48.0543 53.1667 47.8333C53.1667 47.6123 53.0789 47.4003 52.9226 47.244C52.7663 47.0878 52.5544 47 52.3333 47C52.1123 47 51.9004 46.9122 51.7441 46.7559C51.5878 46.5996 51.5 46.3876 51.5 46.1666C51.5 45.9456 51.5878 45.7337 51.7441 45.5774C51.9004 45.4211 52.1123 45.3333 52.3333 45.3333C54.1014 45.3333 55.7971 46.0357 57.0474 47.2859C58.2976 48.5362 59 50.2318 59 52C59 53.7681 58.2976 55.4638 57.0474 56.714C55.7971 57.9642 54.1014 58.6666 52.3333 58.6666Z" fill="#454545"/>
</svg>
