<svg width="105" height="104" viewBox="0 0 105 104" fill="none" xmlns="http://www.w3.org/2000/svg">
<rect x="0.666504" width="104" height="104" rx="52" fill="#F1F1F1"/>
<path d="M45.5205 58.6667L44.333 57.5L47.7497 54.0833C48.1802 53.6528 48.4755 53.1147 48.6355 52.4692C48.7955 51.8236 48.8752 50.8339 48.8747 49.5C48.8747 48.6945 49.0552 47.9028 49.4163 47.125C49.7775 46.3472 50.2913 45.625 50.958 44.9583C52.2219 43.6945 53.6177 42.9792 55.1455 42.8125C56.6733 42.6458 57.9302 43.0695 58.9163 44.0833C59.9163 45.0833 60.333 46.3472 60.1663 47.875C59.9997 49.4028 59.2913 50.7917 58.0413 52.0417C57.3747 52.7083 56.6525 53.2222 55.8747 53.5833C55.0969 53.9445 54.3052 54.125 53.4997 54.125C52.1525 54.125 51.1663 54.2014 50.5413 54.3542C49.9163 54.507 49.3816 54.8056 48.9372 55.25L45.5205 58.6667ZM51.2497 51.7083C51.9025 52.3472 52.7844 52.5833 53.8955 52.4167C55.0066 52.25 55.9997 51.7292 56.8747 50.8542C57.7636 49.9653 58.295 48.9686 58.4688 47.8642C58.6427 46.7597 58.403 45.8953 57.7497 45.2708C57.083 44.6042 56.2116 44.3542 55.1355 44.5208C54.0594 44.6875 53.0697 45.2153 52.1663 46.1042C51.2913 46.9792 50.7602 47.9689 50.573 49.0733C50.3858 50.1778 50.6113 51.0561 51.2497 51.7083ZM57.6663 61.1667C56.7497 61.1667 55.965 60.8403 55.3122 60.1875C54.6594 59.5347 54.333 58.75 54.333 57.8333C54.333 56.9167 54.6594 56.132 55.3122 55.4792C55.965 54.8264 56.7497 54.5 57.6663 54.5C58.583 54.5 59.3677 54.8264 60.0205 55.4792C60.6733 56.132 60.9997 56.9167 60.9997 57.8333C60.9997 58.75 60.6733 59.5347 60.0205 60.1875C59.3677 60.8403 58.583 61.1667 57.6663 61.1667ZM57.6663 59.5C58.1247 59.5 58.5172 59.337 58.8438 59.0108C59.1705 58.6847 59.3336 58.2922 59.333 57.8333C59.3325 57.3745 59.1694 56.9822 58.8438 56.6567C58.5183 56.3311 58.1258 56.1678 57.6663 56.1667C57.2069 56.1656 56.8147 56.3289 56.4897 56.6567C56.1647 56.9845 56.0013 57.3767 55.9997 57.8333C55.998 58.29 56.1613 58.6825 56.4897 59.0108C56.818 59.3392 57.2102 59.5022 57.6663 59.5Z" fill="#454545"/>
</svg>
