<svg width="104" height="104" viewBox="0 0 104 104" fill="none" xmlns="http://www.w3.org/2000/svg">
<rect width="104" height="104" rx="52" fill="#F1F1F1"/>
<path d="M44.5 56.1667C44.5 56.8298 44.7634 57.4657 45.2322 57.9345C45.7011 58.4034 46.337 58.6667 47 58.6667C47.663 58.6667 48.2989 58.4034 48.7678 57.9345C49.2366 57.4657 49.5 56.8298 49.5 56.1667C49.5 55.5037 49.2366 54.8678 48.7678 54.399C48.2989 53.9301 47.663 53.6667 47 53.6667C46.337 53.6667 45.7011 53.9301 45.2322 54.399C44.7634 54.8678 44.5 55.5037 44.5 56.1667ZM52.8333 56.1667C52.8333 56.8298 53.0967 57.4657 53.5656 57.9345C54.0344 58.4034 54.6703 58.6667 55.3333 58.6667C55.9964 58.6667 56.6323 58.4034 57.1011 57.9345C57.5699 57.4657 57.8333 56.8298 57.8333 56.1667C57.8333 55.5037 57.5699 54.8678 57.1011 54.399C56.6323 53.9301 55.9964 53.6667 55.3333 53.6667C54.6703 53.6667 54.0344 53.9301 53.5656 54.399C53.0967 54.8678 52.8333 55.5037 52.8333 56.1667Z" stroke="#454545" stroke-width="2" stroke-linecap="round" stroke-linejoin="round"/>
<path d="M49.5 56.1667V45.3334H57.8333V56.1667M49.5 48.6667H57.8333" stroke="#454545" stroke-width="2" stroke-linecap="round" stroke-linejoin="round"/>
</svg>
