<svg width="105" height="104" viewBox="0 0 105 104" fill="none" xmlns="http://www.w3.org/2000/svg">
<rect x="0.333252" width="104" height="104" rx="52" fill="#F1F1F1"/>
<path d="M45.6667 59.5C45.2083 59.5 44.8161 59.3369 44.49 59.0108C44.1639 58.6847 44.0006 58.2922 44 57.8333V48.6666C44 48.2083 44.1633 47.8161 44.49 47.49C44.8167 47.1638 45.2089 47.0005 45.6667 47H49V45.3333C49 44.875 49.1633 44.4827 49.49 44.1566C49.8167 43.8305 50.2089 43.6672 50.6667 43.6666H54C54.4583 43.6666 54.8508 43.83 55.1775 44.1566C55.5042 44.4833 55.6672 44.8755 55.6667 45.3333V47H59C59.4583 47 59.8508 47.1633 60.1775 47.49C60.5042 47.8166 60.6672 48.2088 60.6667 48.6666V57.8333C60.6667 58.2916 60.5036 58.6841 60.1775 59.0108C59.8514 59.3375 59.4589 59.5005 59 59.5H45.6667ZM50.6667 47H54V45.3333H50.6667V47ZM59 54.5H54.8333V55.3333C54.8333 55.5694 54.7533 55.7675 54.5933 55.9275C54.4333 56.0875 54.2356 56.1672 54 56.1666H50.6667C50.4306 56.1666 50.2328 56.0866 50.0733 55.9266C49.9139 55.7666 49.8339 55.5688 49.8333 55.3333V54.5H45.6667V57.8333H59V54.5ZM51.5 54.5H53.1667V52.8333H51.5V54.5ZM45.6667 52.8333H49.8333V52C49.8333 51.7638 49.9133 51.5661 50.0733 51.4066C50.2333 51.2472 50.4311 51.1672 50.6667 51.1666H54C54.2361 51.1666 54.4342 51.2466 54.5942 51.4066C54.7542 51.5666 54.8339 51.7644 54.8333 52V52.8333H59V48.6666H45.6667V52.8333Z" fill="#454545"/>
</svg>
