<svg width="104" height="104" viewBox="0 0 104 104" fill="none" xmlns="http://www.w3.org/2000/svg">
<rect width="104" height="104" rx="52" fill="#F1F1F1"/>
<path d="M45.3335 53.7249C46.1793 53.7249 47.3593 53.4733 48.1002 54.0166L49.5685 55.0916C50.1143 55.4916 50.7052 55.3599 51.3143 55.2649C52.116 55.1391 52.8335 55.8233 52.8335 56.7133C52.8335 56.9566 51.106 57.5758 50.8568 57.6933C50.6169 57.8067 50.3506 57.8525 50.0866 57.8258C49.8225 57.7991 49.5708 57.7008 49.3585 57.5416L47.7018 56.3274" stroke="#454545" stroke-width="1.7" stroke-linecap="round" stroke-linejoin="round"/>
<path d="M52.8335 56.1666L56.2427 54.5916C56.5433 54.4877 56.8676 54.473 57.1765 54.5491C57.4853 54.6253 57.7656 54.7891 57.9835 55.0208L58.5418 55.605C58.7418 55.8133 58.6952 56.165 58.4477 56.3083L51.9027 60.1091C51.7093 60.2224 51.4947 60.2948 51.2722 60.3216C51.0497 60.3484 50.8241 60.3291 50.6093 60.265L45.3335 58.6891M52.0018 52C52.0018 52 53.7518 50.1341 53.7518 47.8333C53.7518 45.5325 52.0018 43.6666 52.0018 43.6666C52.0018 43.6666 50.2518 45.5325 50.2518 47.8333C50.2518 50.1341 52.0018 52 52.0018 52ZM52.0018 52C52.0018 52 54.5577 51.9433 56.1685 50.3C57.7793 48.6558 57.8352 46.0475 57.8352 46.0475C57.8352 46.0475 56.7768 46.0708 55.5935 46.5258M52.0018 52C52.0018 52 49.446 51.9433 47.8352 50.3C46.2243 48.6558 46.1685 46.0475 46.1685 46.0475C46.1685 46.0475 47.2268 46.0708 48.4102 46.5258" stroke="#454545" stroke-width="1.7" stroke-linecap="round" stroke-linejoin="round"/>
</svg>
