<svg width="104" height="104" viewBox="0 0 104 104" fill="none" xmlns="http://www.w3.org/2000/svg">
<rect width="104" height="104" rx="52" fill="#F1F1F1"/>
<path d="M43.6665 59.5L49.4998 46.1666L53.6665 56.1666L55.3332 51.1666L60.3332 59.5H43.6665ZM57.4165 47.8333C57.969 47.8333 58.4989 47.6138 58.8896 47.2231C59.2803 46.8324 59.4998 46.3025 59.4998 45.75C59.4998 45.1974 59.2803 44.6675 58.8896 44.2768C58.4989 43.8861 57.969 43.6666 57.4165 43.6666C56.864 43.6666 56.3341 43.8861 55.9434 44.2768C55.5527 44.6675 55.3332 45.1974 55.3332 45.75C55.3332 46.3025 55.5527 46.8324 55.9434 47.2231C56.3341 47.6138 56.864 47.8333 57.4165 47.8333Z" stroke="#454545" stroke-width="2" stroke-linejoin="round"/>
</svg>
