<svg width="105" height="104" viewBox="0 0 105 104" fill="none" xmlns="http://www.w3.org/2000/svg">
<rect x="0.666992" width="104" height="104" rx="52" fill="#F1F1F1"/>
<path d="M60.0271 45.7958C60.1108 45.6703 60.1589 45.5245 60.1662 45.3738C60.1735 45.2231 60.1398 45.0732 60.0686 44.9402C59.9974 44.8072 59.8915 44.696 59.7621 44.6184C59.6326 44.5409 59.4846 44.5 59.3337 44.5H46.0004C45.8496 44.5001 45.7018 44.541 45.5725 44.6185C45.4432 44.696 45.3373 44.8071 45.2661 44.94C45.195 45.0729 45.1612 45.2226 45.1684 45.3732C45.1756 45.5237 45.2235 45.6695 45.3071 45.795L51.8337 55.5858V58.6667H49.3337V60.3333H56.0004V58.6667H53.5004V55.5858L60.0271 45.7958ZM52.667 53.8308L49.7796 49.5H55.5545L52.667 53.8308ZM57.777 46.1667L56.6662 47.8333H48.6679L47.557 46.1667H57.777Z" fill="#454545"/>
</svg>
