<svg width="24" height="24" viewBox="0 0 24 24" fill="none" xmlns="http://www.w3.org/2000/svg">
<path d="M5.71487 13.251C6.35067 13.2574 7.12404 13.3465 7.76273 13.8145L9.52542 15.1045C9.87911 15.3635 10.2301 15.3063 11.0606 15.1768C11.9494 15.0372 12.7286 15.4303 13.2168 16.0732L16.7764 14.4287C16.799 14.4183 16.8222 14.4095 16.8457 14.4014C17.3431 14.2295 17.8798 14.2052 18.3907 14.3311C18.8995 14.4565 19.3618 14.7256 19.7217 15.1064L20.3926 15.8076C20.9598 16.3995 20.8415 17.3974 20.1133 17.8193L20.1123 17.8184L12.2598 22.3799L12.2588 22.3789C11.9388 22.5659 11.5839 22.6861 11.2159 22.7305C10.8468 22.7749 10.4724 22.7431 10.1162 22.6367L3.78519 20.7461C3.38839 20.6275 3.16285 20.2093 3.28128 19.8125C3.39983 19.4156 3.81799 19.19 4.21487 19.3086L10.5459 21.1992C10.705 21.2467 10.8724 21.2611 11.0371 21.2412C11.2018 21.2213 11.3608 21.1679 11.5039 21.084L11.5069 21.082L19.128 16.6562L18.6377 16.1436L18.6338 16.1387C18.4714 15.966 18.2624 15.8439 18.0323 15.7871C17.8083 15.7319 17.5735 15.7417 17.3545 15.8135L13.7403 17.4834C13.744 17.5407 13.75 17.5983 13.75 17.6562C13.7499 17.8925 13.6491 18.0645 13.5889 18.1494C13.5238 18.2412 13.4501 18.3102 13.3955 18.3564C13.2856 18.4497 13.1564 18.5308 13.042 18.5957C12.8064 18.7294 12.5072 18.8668 12.2237 18.9893C11.9352 19.1138 11.6394 19.2328 11.4024 19.3271C11.1454 19.4294 10.9954 19.4885 10.9483 19.5107C10.5371 19.7051 10.0805 19.7831 9.62796 19.7373C9.17541 19.6915 8.74382 19.5229 8.37991 19.25L6.39847 17.7979C6.06456 17.553 5.99264 17.084 6.23734 16.75C6.48214 16.416 6.95111 16.3432 7.28519 16.5879L9.27347 18.0449L9.2803 18.0498C9.42586 18.1589 9.59833 18.2268 9.77933 18.2451C9.96034 18.2634 10.1432 18.2321 10.3076 18.1543L10.3086 18.1533C10.4113 18.1049 10.6324 18.0183 10.8477 17.9326C11.0833 17.8389 11.3619 17.7276 11.6289 17.6123C11.8533 17.5155 12.0533 17.4202 12.208 17.3389C12.0858 16.889 11.7116 16.6414 11.3741 16.6514L11.293 16.6592C10.6622 16.7575 9.59481 17.0151 8.6387 16.3145L6.87698 15.0254L6.87601 15.0244C6.62586 14.8412 6.24681 14.7555 5.69925 14.75C5.43406 14.7473 5.1594 14.7631 4.86917 14.7812C4.58963 14.7988 4.28283 14.8203 4.00003 14.8203C3.58593 14.8203 3.25022 14.4844 3.25003 14.0703C3.25003 13.6561 3.58582 13.3203 4.00003 13.3203C4.22473 13.3203 4.47621 13.3029 4.77542 13.2842C5.06357 13.2661 5.38844 13.2477 5.71487 13.251ZM13.3516 7C13.3516 5.80288 12.8936 4.68573 12.4034 3.84082C12.2659 3.60393 12.1282 3.39277 12.002 3.21191C11.8758 3.39277 11.7381 3.60393 11.6006 3.84082C11.1104 4.68573 10.6524 5.80288 10.6524 7C10.6524 8.19712 11.1104 9.31427 11.6006 10.1592C11.7379 10.3958 11.8759 10.6064 12.002 10.7871C12.1281 10.6064 12.2661 10.3958 12.4034 10.1592C12.8936 9.31427 13.3516 8.19712 13.3516 7ZM14.8516 7C14.8516 8.56388 14.261 9.94727 13.7012 10.9121C13.6894 10.9325 13.6759 10.9517 13.6641 10.9717C14.5861 10.7214 15.6547 10.2631 16.4668 9.43457C17.3026 8.58118 17.7571 7.44967 17.9991 6.48633C18.0706 6.20119 18.1202 5.93569 18.1573 5.70508C17.7186 5.7795 17.1615 5.90769 16.5811 6.13086C16.1945 6.27947 15.761 6.08671 15.6123 5.7002C15.4637 5.31359 15.6564 4.88012 16.043 4.73145C16.8165 4.43404 17.5444 4.27923 18.0772 4.19824C18.3445 4.15761 18.5658 4.13446 18.7227 4.12207C18.8011 4.11588 18.8637 4.11252 18.9082 4.11035C18.9304 4.10927 18.948 4.10788 18.961 4.10742H18.9854L19.0616 4.10938C19.2384 4.12344 19.4056 4.19967 19.5323 4.32617C19.677 4.47077 19.7564 4.66853 19.752 4.87305V4.87891C19.7519 4.88162 19.7511 4.88543 19.751 4.88965C19.7507 4.89806 19.7506 4.90975 19.75 4.92383C19.7489 4.95228 19.7473 4.99203 19.7442 5.04199C19.7379 5.14258 19.7268 5.2854 19.7071 5.46094C19.6676 5.81123 19.5931 6.29821 19.4541 6.85156C19.1793 7.94613 18.6347 9.36604 17.5381 10.4854C16.44 11.6057 15.0445 12.1637 13.9668 12.4453C13.4225 12.5876 12.9435 12.6628 12.5987 12.7031C12.426 12.7233 12.2858 12.7347 12.1866 12.7412C12.1371 12.7444 12.0976 12.7468 12.0694 12.748C12.0553 12.7486 12.0436 12.7488 12.0352 12.749C12.031 12.7492 12.0272 12.7499 12.0244 12.75H11.9795C11.9768 12.7499 11.973 12.7492 11.9688 12.749C11.9605 12.7488 11.9494 12.7486 11.9356 12.748C11.9073 12.7468 11.8671 12.7444 11.8174 12.7412C11.7182 12.7347 11.5779 12.7233 11.4053 12.7031C11.0605 12.6628 10.5815 12.5875 10.0371 12.4453C8.95956 12.1637 7.56489 11.6054 6.46683 10.4854C5.3702 9.36603 4.82468 7.94613 4.54984 6.85156C4.41092 6.29826 4.3373 5.81122 4.29788 5.46094C4.27813 5.2854 4.2661 5.14258 4.2598 5.04199C4.25667 4.99203 4.25511 4.95228 4.25394 4.92383C4.25336 4.90975 4.25322 4.89806 4.25296 4.88965C4.25283 4.88543 4.25205 4.88162 4.25198 4.87891V4.87305C4.24761 4.66853 4.32702 4.47077 4.47171 4.32617C4.6164 4.18162 4.81411 4.10291 5.01859 4.10742H5.043C5.05594 4.10788 5.07359 4.10927 5.09573 4.11035C5.1402 4.11252 5.20295 4.11589 5.28128 4.12207C5.43812 4.13446 5.65951 4.15762 5.92679 4.19824C6.45952 4.27923 7.18751 4.43405 7.96097 4.73145C8.34759 4.8801 8.54029 5.31358 8.39163 5.7002C8.24291 6.0867 7.80944 6.2795 7.42288 6.13086C6.84202 5.90752 6.28453 5.77947 5.84573 5.70508C5.88276 5.93573 5.93331 6.20112 6.00491 6.48633C6.24682 7.44966 6.70136 8.58118 7.53714 9.43457C8.34925 10.2631 9.41793 10.7214 10.3399 10.9717C10.3282 10.9518 10.3155 10.9323 10.3037 10.9121C9.74395 9.94727 9.15237 8.56388 9.15237 7C9.15237 5.43612 9.74395 4.05273 10.3037 3.08789C10.5864 2.60073 10.8689 2.20659 11.0821 1.93262C11.1888 1.7954 11.279 1.68752 11.3438 1.6123C11.3762 1.57467 11.402 1.54439 11.4209 1.52344C11.4303 1.51299 11.4387 1.50518 11.4444 1.49902C11.4472 1.49598 11.4494 1.49318 11.4512 1.49121C11.4521 1.49027 11.4525 1.48897 11.4532 1.48828L11.4541 1.4873C11.5959 1.33615 11.7948 1.25001 12.002 1.25C12.2092 1.25 12.4071 1.33614 12.5489 1.4873L12.5508 1.48828C12.5514 1.48896 12.5519 1.49029 12.5528 1.49121C12.5546 1.4932 12.5577 1.49594 12.5606 1.49902C12.5662 1.50513 12.5738 1.5132 12.583 1.52344C12.6019 1.54439 12.6277 1.57467 12.6602 1.6123C12.725 1.68752 12.8151 1.79537 12.9219 1.93262C13.1351 2.20667 13.4184 2.60052 13.7012 3.08789C14.261 4.05273 14.8516 5.43612 14.8516 7Z" fill="white"/>
</svg>
